<svg xmlns="http://www.w3.org/2000/svg" width="1200" height="800" viewBox="0 0 1200 800">
  <!-- 在图书馆 At the library: children reading quietly at a table, a boy running and
       shouting, and the librarian reminding him to be quiet. -->
  <rect width="1200" height="800" fill="#f3eefc"/>
  <rect y="630" width="1200" height="170" fill="#cbb8e8"/>
  <rect y="622" width="1200" height="10" fill="#b39fd6"/>

  <!-- quiet sign -->
  <rect x="510" y="60" width="200" height="90" rx="14" fill="#ffffff" stroke="#9b6dd6" stroke-width="6"/>
  <text x="545" y="125" font-family="serif" font-size="52" fill="#6d28d9">安静</text>
  <text x="640" y="122" font-family="sans-serif" font-size="40" fill="#9b6dd6">🤫</text>

  <!-- bookshelves left and right -->
  <g>
    <rect x="50" y="130" width="300" height="470" rx="10" fill="#a5713f"/>
    <g fill="#8a5a33">
      <rect x="70" y="155" width="260" height="118"/>
      <rect x="70" y="295" width="260" height="118"/>
      <rect x="70" y="435" width="260" height="118"/>
    </g>
    <g>
      <rect x="82" y="170" width="30" height="98" fill="#ef6461"/>
      <rect x="118" y="180" width="30" height="88" fill="#4fb0a5"/>
      <rect x="154" y="170" width="30" height="98" fill="#f4a83c"/>
      <rect x="190" y="184" width="30" height="84" fill="#7f9cc4"/>
      <rect x="226" y="170" width="30" height="98" fill="#9b6dd6"/>
      <rect x="262" y="180" width="30" height="88" fill="#5fae4a"/>
      <rect x="82" y="312" width="30" height="96" fill="#7f9cc4"/>
      <rect x="118" y="320" width="30" height="88" fill="#e05780"/>
      <rect x="154" y="312" width="30" height="96" fill="#5fae4a"/>
      <rect x="190" y="322" width="30" height="86" fill="#f4a83c"/>
      <rect x="226" y="312" width="30" height="96" fill="#4fb0a5"/>
      <rect x="262" y="320" width="30" height="88" fill="#ef6461"/>
      <rect x="82" y="452" width="30" height="96" fill="#f4a83c"/>
      <rect x="118" y="460" width="30" height="88" fill="#9b6dd6"/>
      <rect x="154" y="452" width="30" height="96" fill="#ef6461"/>
      <rect x="190" y="462" width="30" height="86" fill="#4fb0a5"/>
      <rect x="226" y="452" width="30" height="96" fill="#7f9cc4"/>
      <rect x="262" y="460" width="30" height="88" fill="#e05780"/>
    </g>
  </g>
  <g>
    <rect x="880" y="130" width="270" height="360" rx="10" fill="#a5713f"/>
    <g fill="#8a5a33">
      <rect x="898" y="155" width="234" height="140"/>
      <rect x="898" y="320" width="234" height="140"/>
    </g>
    <g>
      <rect x="910" y="172" width="30" height="120" fill="#4fb0a5"/>
      <rect x="946" y="184" width="30" height="108" fill="#ef6461"/>
      <rect x="982" y="172" width="30" height="120" fill="#7f9cc4"/>
      <rect x="1018" y="186" width="30" height="106" fill="#f4a83c"/>
      <rect x="1054" y="172" width="30" height="120" fill="#e05780"/>
      <rect x="1090" y="182" width="30" height="110" fill="#5fae4a"/>
      <rect x="910" y="338" width="30" height="118" fill="#9b6dd6"/>
      <rect x="946" y="350" width="30" height="106" fill="#5fae4a"/>
      <rect x="982" y="338" width="30" height="118" fill="#f4a83c"/>
      <rect x="1018" y="352" width="30" height="104" fill="#ef6461"/>
      <rect x="1054" y="338" width="30" height="118" fill="#4fb0a5"/>
    </g>
  </g>

  <!-- reading table with two children -->
  <g>
    <rect x="420" y="560" width="330" height="20" rx="8" fill="#c9a95e"/>
    <rect x="440" y="580" width="18" height="90" fill="#a5885a"/>
    <rect x="712" y="580" width="18" height="90" fill="#a5885a"/>
    <!-- open books on the table -->
    <path d="M480,556 L520,544 L560,556 L560,560 L480,560 Z" fill="#ffffff" stroke="#9aa7b8" stroke-width="3"/>
    <path d="M610,556 L650,544 L690,556 L690,560 L610,560 Z" fill="#ffffff" stroke="#9aa7b8" stroke-width="3"/>
  </g>
  <g transform="translate(520,462)">
    <path d="M-20,16 A20,20 0 0 1 20,16 Z" fill="#4a2f18"/>
    <circle cx="0" cy="16" r="20" fill="#f6c9a0"/>
    <path d="M-20,11 A20,20 0 0 1 20,11 L20,5 A20,20 0 0 0 -20,5 Z" fill="#4a2f18"/>
    <circle cx="-16" cy="2" r="6.5" fill="#4a2f18"/>
    <circle cx="16" cy="2" r="6.5" fill="#4a2f18"/>
    <circle cx="-7" cy="15" r="2.4" fill="#333"/>
    <circle cx="7" cy="15" r="2.4" fill="#333"/>
    <path d="M-6,25 Q0,30 6,25" stroke="#333" stroke-width="2.8" fill="none" stroke-linecap="round"/>
    <rect x="-19" y="36" width="38" height="48" rx="12" fill="#ef6461"/>
    <path d="M-17,46 L-24,86" stroke="#ef6461" stroke-width="10" stroke-linecap="round"/>
    <path d="M17,46 L24,86" stroke="#ef6461" stroke-width="10" stroke-linecap="round"/>
  </g>
  <g transform="translate(650,462)">
    <path d="M-20,16 A20,20 0 0 1 20,16 Z" fill="#151515"/>
    <circle cx="0" cy="16" r="20" fill="#c98d5f"/>
    <path d="M-20,11 A20,20 0 0 1 20,11 L20,5 A20,20 0 0 0 -20,5 Z" fill="#151515"/>
    <circle cx="-7" cy="15" r="2.4" fill="#333"/>
    <circle cx="7" cy="15" r="2.4" fill="#333"/>
    <path d="M-6,25 Q0,30 6,25" stroke="#333" stroke-width="2.8" fill="none" stroke-linecap="round"/>
    <rect x="-19" y="36" width="38" height="48" rx="12" fill="#4f77b0"/>
    <path d="M-17,46 L-24,86" stroke="#4f77b0" stroke-width="10" stroke-linecap="round"/>
    <path d="M17,46 L24,86" stroke="#4f77b0" stroke-width="10" stroke-linecap="round"/>
  </g>

  <!-- boy running and shouting -->
  <g transform="translate(830,560)">
    <path d="M-22,18 A22,22 0 0 1 22,18 Z" fill="#2c2c2c"/>
    <circle cx="0" cy="18" r="22" fill="#e8b48a"/>
    <path d="M-22,12 A22,22 0 0 1 22,12 L22,6 A22,22 0 0 0 -22,6 Z" fill="#2c2c2c"/>
    <circle cx="-8" cy="16" r="2.6" fill="#333"/>
    <circle cx="8" cy="16" r="2.6" fill="#333"/>
    <ellipse cx="0" cy="29" rx="6" ry="7" fill="#7a3b3b"/>
    <rect x="-20" y="40" width="40" height="50" rx="12" fill="#f4a83c"/>
    <!-- running pose -->
    <path d="M-18,50 L-42,34" stroke="#f4a83c" stroke-width="10" stroke-linecap="round"/>
    <path d="M18,50 L42,66" stroke="#f4a83c" stroke-width="10" stroke-linecap="round"/>
    <path d="M-10,88 L-36,116" stroke="#4a4a58" stroke-width="13" stroke-linecap="round"/>
    <path d="M10,88 L34,104 L30,126" stroke="#4a4a58" stroke-width="13" stroke-linecap="round" fill="none"/>
    <ellipse cx="-42" cy="120" rx="12" ry="7" fill="#fff"/>
    <ellipse cx="30" cy="130" rx="12" ry="7" fill="#fff"/>
    <!-- shout lines -->
    <path d="M26,20 L44,12 M28,30 L48,30 M26,40 L44,48" stroke="#e05780" stroke-width="4" stroke-linecap="round"/>
  </g>

  <!-- librarian at her desk saying shh -->
  <g transform="translate(190,655)">
    <rect x="-90" y="60" width="240" height="18" rx="6" fill="#8a5a33"/>
    <rect x="-80" y="78" width="220" height="60" fill="#a5713f"/>
    <rect x="40" y="34" width="46" height="30" rx="4" fill="#fff4d6" stroke="#c9a95e" stroke-width="3"/>
    <path d="M-22,-58 A22,22 0 0 1 22,-58 Z" fill="#3b2a1c"/>
    <circle cx="0" cy="-58" r="22" fill="#f2c396"/>
    <path d="M-22,-63 A22,22 0 0 1 22,-63 L22,-69 A22,22 0 0 0 -22,-69 Z" fill="#3b2a1c"/>
    <circle cx="0" cy="-88" r="9" fill="#3b2a1c"/>
    <circle cx="-8" cy="-60" r="2.6" fill="#333"/>
    <circle cx="8" cy="-60" r="2.6" fill="#333"/>
    <path d="M-5,-48 Q0,-46 5,-48" stroke="#333" stroke-width="3" fill="none" stroke-linecap="round"/>
    <rect x="-22" y="-36" width="44" height="56" rx="13" fill="#9b6dd6"/>
    <!-- finger to lips -->
    <path d="M18,-26 L10,-48" stroke="#9b6dd6" stroke-width="10" stroke-linecap="round"/>
    <path d="M8,-48 L4,-58" stroke="#f2c396" stroke-width="7" stroke-linecap="round"/>
    <path d="M-18,-26 L-34,4" stroke="#9b6dd6" stroke-width="10" stroke-linecap="round"/>
  </g>
</svg>
