<svg xmlns="http://www.w3.org/2000/svg" width="1200" height="800" viewBox="0 0 1200 800">
  <!-- 在公园 At the park: kids playing ball, grandpa on a bench, girl flying a kite,
       a boy about to drop a can next to the litter bin, and a dog. -->
  <rect width="1200" height="800" fill="#cdeafd"/>
  <circle cx="1080" cy="110" r="62" fill="#ffd35c"/>
  <g fill="#ffffff" opacity="0.9">
    <ellipse cx="220" cy="110" rx="70" ry="26"/>
    <ellipse cx="290" cy="95" rx="55" ry="22"/>
    <ellipse cx="700" cy="70" rx="65" ry="24"/>
  </g>
  <rect y="520" width="1200" height="280" fill="#96d06e"/>
  <ellipse cx="600" cy="530" rx="700" ry="40" fill="#a7db81"/>
  <!-- path -->
  <path d="M0,760 Q600,640 1200,740 L1200,800 L0,800 Z" fill="#e8d9a8"/>

  <!-- trees -->
  <g>
    <rect x="88" y="380" width="26" height="150" rx="10" fill="#8a5a33"/>
    <circle cx="101" cy="330" r="85" fill="#5fae4a"/>
    <circle cx="55" cy="370" r="55" fill="#6fbe58"/>
    <circle cx="150" cy="370" r="55" fill="#6fbe58"/>
  </g>
  <g>
    <rect x="1070" y="400" width="24" height="130" rx="10" fill="#8a5a33"/>
    <circle cx="1082" cy="355" r="72" fill="#5fae4a"/>
    <circle cx="1040" cy="392" r="46" fill="#6fbe58"/>
    <circle cx="1125" cy="392" r="46" fill="#6fbe58"/>
  </g>

  <!-- bench with grandpa reading -->
  <g>
    <rect x="230" y="560" width="200" height="18" rx="8" fill="#a5713f"/>
    <rect x="230" y="510" width="200" height="16" rx="8" fill="#a5713f"/>
    <rect x="240" y="578" width="16" height="60" fill="#7d5330"/>
    <rect x="404" y="578" width="16" height="60" fill="#7d5330"/>
  </g>
  <g transform="translate(330,410)">
    <path d="M-22,18 A22,22 0 0 1 22,18 Z" fill="#e6e6e6"/>
    <circle cx="0" cy="18" r="22" fill="#f2c396"/>
    <path d="M-22,14 A22,22 0 0 1 22,14 L22,8 A22,22 0 0 0 -22,8 Z" fill="#dcdcdc"/>
    <circle cx="-8" cy="16" r="2.6" fill="#333"/>
    <circle cx="8" cy="16" r="2.6" fill="#333"/>
    <path d="M-7,27 Q0,33 7,27" stroke="#333" stroke-width="3" fill="none" stroke-linecap="round"/>
    <rect x="-24" y="40" width="48" height="58" rx="14" fill="#7f9cc4"/>
    <!-- book in hands -->
    <path d="M-20,54 L-6,96" stroke="#7f9cc4" stroke-width="11" stroke-linecap="round"/>
    <path d="M20,54 L6,96" stroke="#7f9cc4" stroke-width="11" stroke-linecap="round"/>
    <path d="M-18,96 L0,88 L18,96 L18,124 L0,116 L-18,124 Z" fill="#fff4d6" stroke="#c9a95e" stroke-width="3"/>
    <!-- legs seated -->
    <rect x="-20" y="96" width="15" height="40" rx="6" fill="#5c5c6e"/>
    <rect x="5" y="96" width="15" height="40" rx="6" fill="#5c5c6e"/>
    <ellipse cx="-12" cy="140" rx="12" ry="7" fill="#3c3c46"/>
    <ellipse cx="12" cy="140" rx="12" ry="7" fill="#3c3c46"/>
  </g>

  <!-- two kids kicking a ball -->
  <g transform="translate(560,470)">
    <path d="M-22,18 A22,22 0 0 1 22,18 Z" fill="#3b2a1c"/>
    <circle cx="0" cy="18" r="22" fill="#f6c9a0"/>
    <path d="M-22,12 A22,22 0 0 1 22,12 L22,6 A22,22 0 0 0 -22,6 Z" fill="#3b2a1c"/>
    <circle cx="-8" cy="16" r="2.6" fill="#333"/>
    <circle cx="8" cy="16" r="2.6" fill="#333"/>
    <path d="M-7,27 Q0,33 7,27" stroke="#333" stroke-width="3" fill="none" stroke-linecap="round"/>
    <rect x="-20" y="40" width="40" height="52" rx="12" fill="#ef6461"/>
    <path d="M-18,50 L-36,74" stroke="#ef6461" stroke-width="10" stroke-linecap="round"/>
    <path d="M18,50 L38,60" stroke="#ef6461" stroke-width="10" stroke-linecap="round"/>
    <!-- kicking leg forward -->
    <rect x="-16" y="90" width="13" height="36" rx="6" fill="#3f5f8a"/>
    <path d="M8,94 L34,112" stroke="#3f5f8a" stroke-width="13" stroke-linecap="round"/>
    <ellipse cx="-10" cy="130" rx="12" ry="7" fill="#fff"/>
    <ellipse cx="40" cy="114" rx="12" ry="7" fill="#fff"/>
  </g>
  <!-- ball -->
  <circle cx="655" cy="590" r="26" fill="#ffffff" stroke="#444" stroke-width="3"/>
  <path d="M655,564 L668,582 L661,602 L649,602 L642,582 Z" fill="#444"/>
  <g transform="translate(760,470)">
    <path d="M-22,18 A22,22 0 0 1 22,18 Z" fill="#151515"/>
    <circle cx="0" cy="18" r="22" fill="#e8b48a"/>
    <path d="M-22,12 A22,22 0 0 1 22,12 L22,6 A22,22 0 0 0 -22,6 Z" fill="#151515"/>
    <circle cx="-8" cy="16" r="2.6" fill="#333"/>
    <circle cx="8" cy="16" r="2.6" fill="#333"/>
    <path d="M-7,27 Q0,33 7,27" stroke="#333" stroke-width="3" fill="none" stroke-linecap="round"/>
    <rect x="-20" y="40" width="40" height="52" rx="12" fill="#f4a83c"/>
    <path d="M-18,50 L-40,44" stroke="#f4a83c" stroke-width="10" stroke-linecap="round"/>
    <path d="M18,50 L36,72" stroke="#f4a83c" stroke-width="10" stroke-linecap="round"/>
    <rect x="-16" y="90" width="13" height="36" rx="6" fill="#4a4a58"/>
    <rect x="3" y="90" width="13" height="36" rx="6" fill="#4a4a58"/>
    <ellipse cx="-10" cy="130" rx="12" ry="7" fill="#fff"/>
    <ellipse cx="10" cy="130" rx="12" ry="7" fill="#fff"/>
  </g>

  <!-- girl flying a kite -->
  <g>
    <path d="M905,470 L1010,240" stroke="#999" stroke-width="2.5" fill="none"/>
    <g transform="translate(1010,215) rotate(18)">
      <path d="M0,-45 L32,0 L0,45 L-32,0 Z" fill="#ff8fab" stroke="#d95d80" stroke-width="3"/>
      <path d="M0,-45 L0,45 M-32,0 L32,0" stroke="#d95d80" stroke-width="2.5"/>
      <path d="M0,45 q10,18 -4,30 q14,10 4,26" stroke="#d95d80" stroke-width="3" fill="none"/>
    </g>
  </g>
  <g transform="translate(895,485)">
    <path d="M-21,17 A21,21 0 0 1 21,17 Z" fill="#4a2f18"/>
    <circle cx="0" cy="17" r="21" fill="#f6c9a0"/>
    <path d="M-21,12 A21,21 0 0 1 21,12 L21,6 A21,21 0 0 0 -21,6 Z" fill="#4a2f18"/>
    <circle cx="-16" cy="4" r="7" fill="#4a2f18"/>
    <circle cx="16" cy="4" r="7" fill="#4a2f18"/>
    <circle cx="-8" cy="15" r="2.5" fill="#333"/>
    <circle cx="8" cy="15" r="2.5" fill="#333"/>
    <path d="M-6,26 Q0,31 6,26" stroke="#333" stroke-width="3" fill="none" stroke-linecap="round"/>
    <path d="M-24,38 L24,38 L32,92 L-32,92 Z" fill="#9b6dd6"/>
    <path d="M-16,46 L-34,30" stroke="#9b6dd6" stroke-width="10" stroke-linecap="round"/>
    <path d="M16,46 L34,26" stroke="#9b6dd6" stroke-width="10" stroke-linecap="round"/>
    <rect x="-14" y="92" width="12" height="32" rx="6" fill="#f6c9a0"/>
    <rect x="2" y="92" width="12" height="32" rx="6" fill="#f6c9a0"/>
    <ellipse cx="-8" cy="127" rx="11" ry="7" fill="#e05780"/>
    <ellipse cx="8" cy="127" rx="11" ry="7" fill="#e05780"/>
  </g>

  <!-- litter bin + boy holding a can -->
  <g>
    <path d="M330,660 L410,660 L400,745 L340,745 Z" fill="#3f7a4e"/>
    <rect x="322" y="646" width="96" height="16" rx="8" fill="#356843"/>
    <!-- stray litter on the ground -->
    <ellipse cx="452" cy="748" rx="16" ry="8" fill="#f3f3f3" stroke="#bbb" stroke-width="2"/>
  </g>
  <g transform="translate(490,570)">
    <path d="M-22,18 A22,22 0 0 1 22,18 Z" fill="#2c2c2c"/>
    <circle cx="0" cy="18" r="22" fill="#c98d5f"/>
    <path d="M-22,12 A22,22 0 0 1 22,12 L22,6 A22,22 0 0 0 -22,6 Z" fill="#2c2c2c"/>
    <circle cx="-8" cy="16" r="2.6" fill="#333"/>
    <circle cx="8" cy="16" r="2.6" fill="#333"/>
    <path d="M-6,28 Q0,31 6,28" stroke="#333" stroke-width="3" fill="none" stroke-linecap="round"/>
    <rect x="-20" y="40" width="40" height="52" rx="12" fill="#4fb0a5"/>
    <!-- arm stretched toward the bin with a drink can -->
    <path d="M-18,50 L-52,66" stroke="#4fb0a5" stroke-width="10" stroke-linecap="round"/>
    <rect x="-72" y="52" width="18" height="26" rx="5" fill="#e2574c" stroke="#b33d34" stroke-width="2"/>
    <path d="M18,50 L26,76" stroke="#4fb0a5" stroke-width="10" stroke-linecap="round"/>
    <rect x="-16" y="90" width="13" height="36" rx="6" fill="#6b4f3a"/>
    <rect x="3" y="90" width="13" height="36" rx="6" fill="#6b4f3a"/>
    <ellipse cx="-10" cy="130" rx="12" ry="7" fill="#fff"/>
    <ellipse cx="10" cy="130" rx="12" ry="7" fill="#fff"/>
  </g>

  <!-- dog -->
  <g transform="translate(190,690)">
    <ellipse cx="0" cy="20" rx="42" ry="24" fill="#c98d5f"/>
    <circle cx="46" cy="0" r="20" fill="#c98d5f"/>
    <path d="M34,-14 L28,-32 L44,-22 Z" fill="#8a5a33"/>
    <path d="M58,-14 L64,-32 L48,-22 Z" fill="#8a5a33"/>
    <circle cx="42" cy="-2" r="2.5" fill="#333"/>
    <circle cx="54" cy="-2" r="2.5" fill="#333"/>
    <ellipse cx="50" cy="8" rx="5" ry="4" fill="#333"/>
    <path d="M-38,10 Q-58,-6 -50,-22" stroke="#c98d5f" stroke-width="10" fill="none" stroke-linecap="round"/>
    <rect x="-28" y="34" width="10" height="22" rx="5" fill="#b57a4c"/>
    <rect x="16" y="34" width="10" height="22" rx="5" fill="#b57a4c"/>
  </g>

  <!-- flowers -->
  <g fill="#ff7ba9">
    <circle cx="70" cy="600" r="9"/><circle cx="100" cy="625" r="9"/><circle cx="45" cy="640" r="9"/>
    <circle cx="1140" cy="600" r="9"/><circle cx="1110" cy="630" r="9"/><circle cx="1160" cy="650" r="9"/>
  </g>
  <g fill="#ffd35c">
    <circle cx="70" cy="600" r="3.5"/><circle cx="100" cy="625" r="3.5"/><circle cx="45" cy="640" r="3.5"/>
    <circle cx="1140" cy="600" r="3.5"/><circle cx="1110" cy="630" r="3.5"/><circle cx="1160" cy="650" r="3.5"/>
  </g>
</svg>
